%TF.GenerationSoftware,KiCad,Pcbnew,9.0.6*%
%TF.CreationDate,2026-04-18T19:54:03+02:00*%
%TF.ProjectId,C3_GestureDriver_Screen,43335f47-6573-4747-9572-654472697665,rev?*%
%TF.SameCoordinates,Original*%
%TF.FileFunction,Legend,Top*%
%TF.FilePolarity,Positive*%
%FSLAX46Y46*%
G04 Gerber Fmt 4.6, Leading zero omitted, Abs format (unit mm)*
G04 Created by KiCad (PCBNEW 9.0.6) date 2026-04-18 19:54:03*
%MOMM*%
%LPD*%
G01*
G04 APERTURE LIST*
%ADD10C,0.150000*%
%ADD11C,0.100000*%
%ADD12C,0.120000*%
G04 APERTURE END LIST*
D10*
X55333333Y-105359580D02*
X55285714Y-105407200D01*
X55285714Y-105407200D02*
X55142857Y-105454819D01*
X55142857Y-105454819D02*
X55047619Y-105454819D01*
X55047619Y-105454819D02*
X54904762Y-105407200D01*
X54904762Y-105407200D02*
X54809524Y-105311961D01*
X54809524Y-105311961D02*
X54761905Y-105216723D01*
X54761905Y-105216723D02*
X54714286Y-105026247D01*
X54714286Y-105026247D02*
X54714286Y-104883390D01*
X54714286Y-104883390D02*
X54761905Y-104692914D01*
X54761905Y-104692914D02*
X54809524Y-104597676D01*
X54809524Y-104597676D02*
X54904762Y-104502438D01*
X54904762Y-104502438D02*
X55047619Y-104454819D01*
X55047619Y-104454819D02*
X55142857Y-104454819D01*
X55142857Y-104454819D02*
X55285714Y-104502438D01*
X55285714Y-104502438D02*
X55333333Y-104550057D01*
X56285714Y-105454819D02*
X55714286Y-105454819D01*
X56000000Y-105454819D02*
X56000000Y-104454819D01*
X56000000Y-104454819D02*
X55904762Y-104597676D01*
X55904762Y-104597676D02*
X55809524Y-104692914D01*
X55809524Y-104692914D02*
X55714286Y-104740533D01*
X64833333Y-145859580D02*
X64785714Y-145907200D01*
X64785714Y-145907200D02*
X64642857Y-145954819D01*
X64642857Y-145954819D02*
X64547619Y-145954819D01*
X64547619Y-145954819D02*
X64404762Y-145907200D01*
X64404762Y-145907200D02*
X64309524Y-145811961D01*
X64309524Y-145811961D02*
X64261905Y-145716723D01*
X64261905Y-145716723D02*
X64214286Y-145526247D01*
X64214286Y-145526247D02*
X64214286Y-145383390D01*
X64214286Y-145383390D02*
X64261905Y-145192914D01*
X64261905Y-145192914D02*
X64309524Y-145097676D01*
X64309524Y-145097676D02*
X64404762Y-145002438D01*
X64404762Y-145002438D02*
X64547619Y-144954819D01*
X64547619Y-144954819D02*
X64642857Y-144954819D01*
X64642857Y-144954819D02*
X64785714Y-145002438D01*
X64785714Y-145002438D02*
X64833333Y-145050057D01*
X65214286Y-145050057D02*
X65261905Y-145002438D01*
X65261905Y-145002438D02*
X65357143Y-144954819D01*
X65357143Y-144954819D02*
X65595238Y-144954819D01*
X65595238Y-144954819D02*
X65690476Y-145002438D01*
X65690476Y-145002438D02*
X65738095Y-145050057D01*
X65738095Y-145050057D02*
X65785714Y-145145295D01*
X65785714Y-145145295D02*
X65785714Y-145240533D01*
X65785714Y-145240533D02*
X65738095Y-145383390D01*
X65738095Y-145383390D02*
X65166667Y-145954819D01*
X65166667Y-145954819D02*
X65785714Y-145954819D01*
X76040026Y-142054819D02*
X76040026Y-142769104D01*
X76040026Y-142769104D02*
X75992407Y-142911961D01*
X75992407Y-142911961D02*
X75897169Y-143007200D01*
X75897169Y-143007200D02*
X75754312Y-143054819D01*
X75754312Y-143054819D02*
X75659074Y-143054819D01*
X77040026Y-143054819D02*
X76468598Y-143054819D01*
X76754312Y-143054819D02*
X76754312Y-142054819D01*
X76754312Y-142054819D02*
X76659074Y-142197676D01*
X76659074Y-142197676D02*
X76563836Y-142292914D01*
X76563836Y-142292914D02*
X76468598Y-142340533D01*
D11*
X51738095Y-107457419D02*
X51738095Y-108266942D01*
X51738095Y-108266942D02*
X51785714Y-108362180D01*
X51785714Y-108362180D02*
X51833333Y-108409800D01*
X51833333Y-108409800D02*
X51928571Y-108457419D01*
X51928571Y-108457419D02*
X52119047Y-108457419D01*
X52119047Y-108457419D02*
X52214285Y-108409800D01*
X52214285Y-108409800D02*
X52261904Y-108362180D01*
X52261904Y-108362180D02*
X52309523Y-108266942D01*
X52309523Y-108266942D02*
X52309523Y-107457419D01*
X53309523Y-108457419D02*
X52738095Y-108457419D01*
X53023809Y-108457419D02*
X53023809Y-107457419D01*
X53023809Y-107457419D02*
X52928571Y-107600276D01*
X52928571Y-107600276D02*
X52833333Y-107695514D01*
X52833333Y-107695514D02*
X52738095Y-107743133D01*
X53738095Y-76457419D02*
X53738095Y-77266942D01*
X53738095Y-77266942D02*
X53785714Y-77362180D01*
X53785714Y-77362180D02*
X53833333Y-77409800D01*
X53833333Y-77409800D02*
X53928571Y-77457419D01*
X53928571Y-77457419D02*
X54119047Y-77457419D01*
X54119047Y-77457419D02*
X54214285Y-77409800D01*
X54214285Y-77409800D02*
X54261904Y-77362180D01*
X54261904Y-77362180D02*
X54309523Y-77266942D01*
X54309523Y-77266942D02*
X54309523Y-76457419D01*
X54690476Y-76457419D02*
X55309523Y-76457419D01*
X55309523Y-76457419D02*
X54976190Y-76838371D01*
X54976190Y-76838371D02*
X55119047Y-76838371D01*
X55119047Y-76838371D02*
X55214285Y-76885990D01*
X55214285Y-76885990D02*
X55261904Y-76933609D01*
X55261904Y-76933609D02*
X55309523Y-77028847D01*
X55309523Y-77028847D02*
X55309523Y-77266942D01*
X55309523Y-77266942D02*
X55261904Y-77362180D01*
X55261904Y-77362180D02*
X55214285Y-77409800D01*
X55214285Y-77409800D02*
X55119047Y-77457419D01*
X55119047Y-77457419D02*
X54833333Y-77457419D01*
X54833333Y-77457419D02*
X54738095Y-77409800D01*
X54738095Y-77409800D02*
X54690476Y-77362180D01*
D10*
X65761905Y-138954819D02*
X65761905Y-137954819D01*
X65761905Y-137954819D02*
X66000000Y-137954819D01*
X66000000Y-137954819D02*
X66142857Y-138002438D01*
X66142857Y-138002438D02*
X66238095Y-138097676D01*
X66238095Y-138097676D02*
X66285714Y-138192914D01*
X66285714Y-138192914D02*
X66333333Y-138383390D01*
X66333333Y-138383390D02*
X66333333Y-138526247D01*
X66333333Y-138526247D02*
X66285714Y-138716723D01*
X66285714Y-138716723D02*
X66238095Y-138811961D01*
X66238095Y-138811961D02*
X66142857Y-138907200D01*
X66142857Y-138907200D02*
X66000000Y-138954819D01*
X66000000Y-138954819D02*
X65761905Y-138954819D01*
X67285714Y-138954819D02*
X66714286Y-138954819D01*
X67000000Y-138954819D02*
X67000000Y-137954819D01*
X67000000Y-137954819D02*
X66904762Y-138097676D01*
X66904762Y-138097676D02*
X66809524Y-138192914D01*
X66809524Y-138192914D02*
X66714286Y-138240533D01*
X51249066Y-147109901D02*
X51249066Y-148439018D01*
X51249066Y-148439018D02*
X51327250Y-148595384D01*
X51327250Y-148595384D02*
X51405433Y-148673568D01*
X51405433Y-148673568D02*
X51561800Y-148751751D01*
X51561800Y-148751751D02*
X51874533Y-148751751D01*
X51874533Y-148751751D02*
X52030900Y-148673568D01*
X52030900Y-148673568D02*
X52109083Y-148595384D01*
X52109083Y-148595384D02*
X52187266Y-148439018D01*
X52187266Y-148439018D02*
X52187266Y-147109901D01*
X52890916Y-147266268D02*
X52969099Y-147188084D01*
X52969099Y-147188084D02*
X53125466Y-147109901D01*
X53125466Y-147109901D02*
X53516383Y-147109901D01*
X53516383Y-147109901D02*
X53672749Y-147188084D01*
X53672749Y-147188084D02*
X53750933Y-147266268D01*
X53750933Y-147266268D02*
X53829116Y-147422634D01*
X53829116Y-147422634D02*
X53829116Y-147579001D01*
X53829116Y-147579001D02*
X53750933Y-147813551D01*
X53750933Y-147813551D02*
X52812733Y-148751751D01*
X52812733Y-148751751D02*
X53829116Y-148751751D01*
D11*
X55666667Y-138409800D02*
X55809524Y-138457419D01*
X55809524Y-138457419D02*
X56047619Y-138457419D01*
X56047619Y-138457419D02*
X56142857Y-138409800D01*
X56142857Y-138409800D02*
X56190476Y-138362180D01*
X56190476Y-138362180D02*
X56238095Y-138266942D01*
X56238095Y-138266942D02*
X56238095Y-138171704D01*
X56238095Y-138171704D02*
X56190476Y-138076466D01*
X56190476Y-138076466D02*
X56142857Y-138028847D01*
X56142857Y-138028847D02*
X56047619Y-137981228D01*
X56047619Y-137981228D02*
X55857143Y-137933609D01*
X55857143Y-137933609D02*
X55761905Y-137885990D01*
X55761905Y-137885990D02*
X55714286Y-137838371D01*
X55714286Y-137838371D02*
X55666667Y-137743133D01*
X55666667Y-137743133D02*
X55666667Y-137647895D01*
X55666667Y-137647895D02*
X55714286Y-137552657D01*
X55714286Y-137552657D02*
X55761905Y-137505038D01*
X55761905Y-137505038D02*
X55857143Y-137457419D01*
X55857143Y-137457419D02*
X56095238Y-137457419D01*
X56095238Y-137457419D02*
X56238095Y-137505038D01*
X56571429Y-137457419D02*
X56809524Y-138457419D01*
X56809524Y-138457419D02*
X57000000Y-137743133D01*
X57000000Y-137743133D02*
X57190476Y-138457419D01*
X57190476Y-138457419D02*
X57428572Y-137457419D01*
X58333333Y-138457419D02*
X57761905Y-138457419D01*
X58047619Y-138457419D02*
X58047619Y-137457419D01*
X58047619Y-137457419D02*
X57952381Y-137600276D01*
X57952381Y-137600276D02*
X57857143Y-137695514D01*
X57857143Y-137695514D02*
X57761905Y-137743133D01*
D10*
X64833333Y-148359580D02*
X64785714Y-148407200D01*
X64785714Y-148407200D02*
X64642857Y-148454819D01*
X64642857Y-148454819D02*
X64547619Y-148454819D01*
X64547619Y-148454819D02*
X64404762Y-148407200D01*
X64404762Y-148407200D02*
X64309524Y-148311961D01*
X64309524Y-148311961D02*
X64261905Y-148216723D01*
X64261905Y-148216723D02*
X64214286Y-148026247D01*
X64214286Y-148026247D02*
X64214286Y-147883390D01*
X64214286Y-147883390D02*
X64261905Y-147692914D01*
X64261905Y-147692914D02*
X64309524Y-147597676D01*
X64309524Y-147597676D02*
X64404762Y-147502438D01*
X64404762Y-147502438D02*
X64547619Y-147454819D01*
X64547619Y-147454819D02*
X64642857Y-147454819D01*
X64642857Y-147454819D02*
X64785714Y-147502438D01*
X64785714Y-147502438D02*
X64833333Y-147550057D01*
X65166667Y-147454819D02*
X65785714Y-147454819D01*
X65785714Y-147454819D02*
X65452381Y-147835771D01*
X65452381Y-147835771D02*
X65595238Y-147835771D01*
X65595238Y-147835771D02*
X65690476Y-147883390D01*
X65690476Y-147883390D02*
X65738095Y-147931009D01*
X65738095Y-147931009D02*
X65785714Y-148026247D01*
X65785714Y-148026247D02*
X65785714Y-148264342D01*
X65785714Y-148264342D02*
X65738095Y-148359580D01*
X65738095Y-148359580D02*
X65690476Y-148407200D01*
X65690476Y-148407200D02*
X65595238Y-148454819D01*
X65595238Y-148454819D02*
X65309524Y-148454819D01*
X65309524Y-148454819D02*
X65214286Y-148407200D01*
X65214286Y-148407200D02*
X65166667Y-148359580D01*
X68333333Y-138954819D02*
X68000000Y-138478628D01*
X67761905Y-138954819D02*
X67761905Y-137954819D01*
X67761905Y-137954819D02*
X68142857Y-137954819D01*
X68142857Y-137954819D02*
X68238095Y-138002438D01*
X68238095Y-138002438D02*
X68285714Y-138050057D01*
X68285714Y-138050057D02*
X68333333Y-138145295D01*
X68333333Y-138145295D02*
X68333333Y-138288152D01*
X68333333Y-138288152D02*
X68285714Y-138383390D01*
X68285714Y-138383390D02*
X68238095Y-138431009D01*
X68238095Y-138431009D02*
X68142857Y-138478628D01*
X68142857Y-138478628D02*
X67761905Y-138478628D01*
X69285714Y-138954819D02*
X68714286Y-138954819D01*
X69000000Y-138954819D02*
X69000000Y-137954819D01*
X69000000Y-137954819D02*
X68904762Y-138097676D01*
X68904762Y-138097676D02*
X68809524Y-138192914D01*
X68809524Y-138192914D02*
X68714286Y-138240533D01*
D12*
%TO.C,C1*%
X52640580Y-104490000D02*
X52359420Y-104490000D01*
X52640580Y-105510000D02*
X52359420Y-105510000D01*
%TO.C,C2*%
X61859420Y-144990000D02*
X62140580Y-144990000D01*
X61859420Y-146010000D02*
X62140580Y-146010000D01*
%TO.C,J1*%
X70440000Y-146250000D02*
X71050000Y-146250000D01*
X70440000Y-147550000D02*
X71050000Y-147550000D01*
X71050000Y-144750000D02*
X71050000Y-148250000D01*
X71050000Y-148250000D02*
X73000000Y-148250000D01*
X73000000Y-148250000D02*
X73000000Y-148860000D01*
X73400000Y-145250000D02*
X73400000Y-144750000D01*
X73500000Y-144750000D02*
X73500000Y-145250000D01*
X73600000Y-144750000D02*
X73600000Y-145250000D01*
X73600000Y-145250000D02*
X73400000Y-145250000D01*
X74000000Y-148250000D02*
X75950000Y-148250000D01*
X74000000Y-148860000D02*
X74000000Y-148250000D01*
X74800000Y-148860000D02*
X74800000Y-149060000D01*
X74800000Y-148960000D02*
X75100000Y-148960000D01*
X74800000Y-149060000D02*
X75100000Y-149060000D01*
X75100000Y-149060000D02*
X75100000Y-148860000D01*
X75610000Y-149160000D02*
X76860000Y-149160000D01*
X75950000Y-144750000D02*
X71050000Y-144750000D01*
X75950000Y-148250000D02*
X75950000Y-144750000D01*
X76560000Y-146250000D02*
X75950000Y-146250000D01*
X76560000Y-147550000D02*
X75950000Y-147550000D01*
X76860000Y-149160000D02*
X76860000Y-147910000D01*
X76560000Y-148860000D02*
X70440000Y-148860000D01*
X70440000Y-144140000D01*
X76560000Y-144140000D01*
X76560000Y-148860000D01*
%TO.C,U1*%
D11*
X51350000Y-109100000D02*
X78650000Y-109100000D01*
X78650000Y-136900000D01*
X51350000Y-136900000D01*
X51350000Y-109100000D01*
X56110000Y-109100000D02*
X73890000Y-109100000D01*
X73890000Y-111640000D01*
X56110000Y-111640000D01*
X56110000Y-109100000D01*
%TO.C,U3*%
X61190000Y-76840000D02*
X61190000Y-80650000D01*
X61190000Y-80650000D02*
X68810000Y-80650000D01*
X66016000Y-103256000D02*
X69064000Y-103256000D01*
X66016000Y-106304000D02*
X66016000Y-103256000D01*
X66524000Y-106812000D02*
X68556000Y-106812000D01*
X67032000Y-107320000D02*
X68048000Y-107320000D01*
X68810000Y-80650000D02*
X68810000Y-76840000D01*
X69064000Y-103256000D02*
X69064000Y-106304000D01*
X69064000Y-106304000D02*
X66016000Y-106304000D01*
D12*
%TO.C,D1*%
X65765000Y-139515000D02*
X65765000Y-141800000D01*
X67235000Y-139515000D02*
X65765000Y-139515000D01*
X67235000Y-141800000D02*
X67235000Y-139515000D01*
D11*
%TO.C,U2*%
X55568453Y-144367800D02*
G75*
G02*
X56686053Y-149320800I1107827J-2352617D01*
G01*
X56686053Y-149320800D02*
G75*
G02*
X55543053Y-149066800I1363J2704885D01*
G01*
%TO.C,SW1*%
X64400000Y-142950000D02*
X55600000Y-142950000D01*
X55600000Y-139050000D01*
X64400000Y-139050000D01*
X64400000Y-142950000D01*
D12*
%TO.C,C3*%
X61859420Y-147490000D02*
X62140580Y-147490000D01*
X61859420Y-148510000D02*
X62140580Y-148510000D01*
%TO.C,R1*%
X67977500Y-140762742D02*
X67977500Y-141237258D01*
X69022500Y-140762742D02*
X69022500Y-141237258D01*
%TD*%
M02*
