%TF.GenerationSoftware,KiCad,Pcbnew,9.0.6*%
%TF.CreationDate,2026-04-18T19:54:03+02:00*%
%TF.ProjectId,C3_GestureDriver_Screen,43335f47-6573-4747-9572-654472697665,rev?*%
%TF.SameCoordinates,Original*%
%TF.FileFunction,Soldermask,Top*%
%TF.FilePolarity,Negative*%
%FSLAX46Y46*%
G04 Gerber Fmt 4.6, Leading zero omitted, Abs format (unit mm)*
G04 Created by KiCad (PCBNEW 9.0.6) date 2026-04-18 19:54:03*
%MOMM*%
%LPD*%
G01*
G04 APERTURE LIST*
G04 Aperture macros list*
%AMRoundRect*
0 Rectangle with rounded corners*
0 $1 Rounding radius*
0 $2 $3 $4 $5 $6 $7 $8 $9 X,Y pos of 4 corners*
0 Add a 4 corners polygon primitive as box body*
4,1,4,$2,$3,$4,$5,$6,$7,$8,$9,$2,$3,0*
0 Add four circle primitives for the rounded corners*
1,1,$1+$1,$2,$3*
1,1,$1+$1,$4,$5*
1,1,$1+$1,$6,$7*
1,1,$1+$1,$8,$9*
0 Add four rect primitives between the rounded corners*
20,1,$1+$1,$2,$3,$4,$5,0*
20,1,$1+$1,$4,$5,$6,$7,0*
20,1,$1+$1,$6,$7,$8,$9,0*
20,1,$1+$1,$8,$9,$2,$3,0*%
G04 Aperture macros list end*
%ADD10RoundRect,0.225000X0.225000X0.250000X-0.225000X0.250000X-0.225000X-0.250000X0.225000X-0.250000X0*%
%ADD11RoundRect,0.225000X-0.225000X-0.250000X0.225000X-0.250000X0.225000X0.250000X-0.225000X0.250000X0*%
%ADD12RoundRect,0.250000X0.350000X0.625000X-0.350000X0.625000X-0.350000X-0.625000X0.350000X-0.625000X0*%
%ADD13O,1.200000X1.750000*%
%ADD14C,1.800000*%
%ADD15O,3.556000X1.778000*%
%ADD16C,1.905000*%
%ADD17RoundRect,0.218750X-0.256250X0.218750X-0.256250X-0.218750X0.256250X-0.218750X0.256250X0.218750X0*%
%ADD18RoundRect,0.102000X-0.749300X0.749300X-0.749300X-0.749300X0.749300X-0.749300X0.749300X0.749300X0*%
%ADD19C,1.702600*%
%ADD20C,1.524000*%
%ADD21RoundRect,0.200000X-0.275000X0.200000X-0.275000X-0.200000X0.275000X-0.200000X0.275000X0.200000X0*%
G04 APERTURE END LIST*
D10*
%TO.C,C1*%
X53275000Y-105000000D03*
X51725000Y-105000000D03*
%TD*%
D11*
%TO.C,C2*%
X61225000Y-145500000D03*
X62775000Y-145500000D03*
%TD*%
D12*
%TO.C,J1*%
X74500000Y-147050000D03*
D13*
X72500000Y-147050000D03*
%TD*%
D14*
%TO.C,U1*%
X57380000Y-110370000D03*
X59920000Y-110370000D03*
X62460000Y-110370000D03*
X65000000Y-110370000D03*
X67540000Y-110370000D03*
X70080000Y-110370000D03*
X72620000Y-110370000D03*
%TD*%
D15*
%TO.C,U3*%
X56618000Y-79380000D03*
X56618000Y-81920000D03*
X56618000Y-84460000D03*
X56618000Y-87000000D03*
X56618000Y-89540000D03*
X56618000Y-92080000D03*
X56618000Y-94620000D03*
X73382000Y-94620000D03*
X73382000Y-92080000D03*
X73382000Y-89540000D03*
X73382000Y-87000000D03*
X73382000Y-84460000D03*
X73382000Y-81920000D03*
X73382000Y-79380000D03*
D16*
X62460000Y-104780000D03*
X67540000Y-104780000D03*
%TD*%
D17*
%TO.C,D1*%
X66500000Y-140212500D03*
X66500000Y-141787500D03*
%TD*%
D18*
%TO.C,U2*%
X55416053Y-145460000D03*
D19*
X57956053Y-146730000D03*
X55416053Y-148000000D03*
%TD*%
D20*
%TO.C,SW1*%
X62500000Y-141000000D03*
X60000000Y-141000000D03*
X57500000Y-141000000D03*
%TD*%
D11*
%TO.C,C3*%
X61225000Y-148000000D03*
X62775000Y-148000000D03*
%TD*%
D21*
%TO.C,R1*%
X68500000Y-140175000D03*
X68500000Y-141825000D03*
%TD*%
M02*
