%TF.GenerationSoftware,KiCad,Pcbnew,9.0.6*%
%TF.CreationDate,2026-04-18T19:54:03+02:00*%
%TF.ProjectId,C3_GestureDriver_Screen,43335f47-6573-4747-9572-654472697665,rev?*%
%TF.SameCoordinates,Original*%
%TF.FileFunction,Copper,L1,Top*%
%TF.FilePolarity,Positive*%
%FSLAX46Y46*%
G04 Gerber Fmt 4.6, Leading zero omitted, Abs format (unit mm)*
G04 Created by KiCad (PCBNEW 9.0.6) date 2026-04-18 19:54:03*
%MOMM*%
%LPD*%
G01*
G04 APERTURE LIST*
G04 Aperture macros list*
%AMRoundRect*
0 Rectangle with rounded corners*
0 $1 Rounding radius*
0 $2 $3 $4 $5 $6 $7 $8 $9 X,Y pos of 4 corners*
0 Add a 4 corners polygon primitive as box body*
4,1,4,$2,$3,$4,$5,$6,$7,$8,$9,$2,$3,0*
0 Add four circle primitives for the rounded corners*
1,1,$1+$1,$2,$3*
1,1,$1+$1,$4,$5*
1,1,$1+$1,$6,$7*
1,1,$1+$1,$8,$9*
0 Add four rect primitives between the rounded corners*
20,1,$1+$1,$2,$3,$4,$5,0*
20,1,$1+$1,$4,$5,$6,$7,0*
20,1,$1+$1,$6,$7,$8,$9,0*
20,1,$1+$1,$8,$9,$2,$3,0*%
G04 Aperture macros list end*
%TA.AperFunction,SMDPad,CuDef*%
%ADD10RoundRect,0.225000X0.225000X0.250000X-0.225000X0.250000X-0.225000X-0.250000X0.225000X-0.250000X0*%
%TD*%
%TA.AperFunction,SMDPad,CuDef*%
%ADD11RoundRect,0.225000X-0.225000X-0.250000X0.225000X-0.250000X0.225000X0.250000X-0.225000X0.250000X0*%
%TD*%
%TA.AperFunction,ComponentPad*%
%ADD12RoundRect,0.250000X0.350000X0.625000X-0.350000X0.625000X-0.350000X-0.625000X0.350000X-0.625000X0*%
%TD*%
%TA.AperFunction,ComponentPad*%
%ADD13O,1.200000X1.750000*%
%TD*%
%TA.AperFunction,ComponentPad*%
%ADD14C,1.800000*%
%TD*%
%TA.AperFunction,ComponentPad*%
%ADD15O,3.556000X1.778000*%
%TD*%
%TA.AperFunction,ComponentPad*%
%ADD16C,1.905000*%
%TD*%
%TA.AperFunction,SMDPad,CuDef*%
%ADD17RoundRect,0.218750X-0.256250X0.218750X-0.256250X-0.218750X0.256250X-0.218750X0.256250X0.218750X0*%
%TD*%
%TA.AperFunction,ComponentPad*%
%ADD18R,1.498600X1.498600*%
%TD*%
%TA.AperFunction,ComponentPad*%
%ADD19C,1.498600*%
%TD*%
%TA.AperFunction,ComponentPad*%
%ADD20C,1.524000*%
%TD*%
%TA.AperFunction,SMDPad,CuDef*%
%ADD21RoundRect,0.200000X-0.275000X0.200000X-0.275000X-0.200000X0.275000X-0.200000X0.275000X0.200000X0*%
%TD*%
%TA.AperFunction,Conductor*%
%ADD22C,0.500000*%
%TD*%
%TA.AperFunction,Conductor*%
%ADD23C,0.250000*%
%TD*%
G04 APERTURE END LIST*
D10*
%TO.P,C1,1*%
%TO.N,+3.3V*%
X53275000Y-105000000D03*
%TO.P,C1,2*%
%TO.N,GND*%
X51725000Y-105000000D03*
%TD*%
D11*
%TO.P,C2,1*%
%TO.N,Net-(SW1-C)*%
X61225000Y-145500000D03*
%TO.P,C2,2*%
%TO.N,GND*%
X62775000Y-145500000D03*
%TD*%
D12*
%TO.P,J1,1,Pin_1*%
%TO.N,GND*%
X74500000Y-147050000D03*
D13*
%TO.P,J1,2,Pin_2*%
%TO.N,Net-(J1-Pin_2)*%
X72500000Y-147050000D03*
%TD*%
D14*
%TO.P,U1,1,GND*%
%TO.N,GND*%
X57380000Y-110370000D03*
%TO.P,U1,2,VCC*%
%TO.N,+3.3V*%
X59920000Y-110370000D03*
%TO.P,U1,3,D0*%
%TO.N,/OLED_SCL*%
X62460000Y-110370000D03*
%TO.P,U1,4,D1*%
%TO.N,/OLED_SDA*%
X65000000Y-110370000D03*
%TO.P,U1,5,RST*%
%TO.N,unconnected-(U1-RST-Pad5)*%
X67540000Y-110370000D03*
%TO.P,U1,6,DC*%
%TO.N,Net-(U1-CS)*%
X70080000Y-110370000D03*
%TO.P,U1,7,CS*%
X72620000Y-110370000D03*
%TD*%
D15*
%TO.P,U3,1,GPIO2_A0_D0*%
%TO.N,unconnected-(U3-GPIO2_A0_D0-Pad1)*%
X56618000Y-79380000D03*
%TO.P,U3,2,GPIO3_A1_D1*%
%TO.N,unconnected-(U3-GPIO3_A1_D1-Pad2)*%
X56618000Y-81920000D03*
%TO.P,U3,3,GPIO4_A2_D2*%
%TO.N,unconnected-(U3-GPIO4_A2_D2-Pad3)*%
X56618000Y-84460000D03*
%TO.P,U3,4,GPIO5_A3_D3*%
%TO.N,unconnected-(U3-GPIO5_A3_D3-Pad4)*%
X56618000Y-87000000D03*
%TO.P,U3,5,GPIO6_D4_SDA*%
%TO.N,/OLED_SDA*%
X56618000Y-89540000D03*
%TO.P,U3,6,GPIO7_D5_SCL*%
%TO.N,/OLED_SCL*%
X56618000Y-92080000D03*
%TO.P,U3,7,GPIO21_D6_TX*%
%TO.N,unconnected-(U3-GPIO21_D6_TX-Pad7)*%
X56618000Y-94620000D03*
%TO.P,U3,8,GPIO20_D7_RX*%
%TO.N,unconnected-(U3-GPIO20_D7_RX-Pad8)*%
X73382000Y-94620000D03*
%TO.P,U3,9,GPIO8_D8_SCK*%
%TO.N,unconnected-(U3-GPIO8_D8_SCK-Pad9)*%
X73382000Y-92080000D03*
%TO.P,U3,10,GPIO9_D9_MISO*%
%TO.N,unconnected-(U3-GPIO9_D9_MISO-Pad10)*%
X73382000Y-89540000D03*
%TO.P,U3,11,GPIO10_D10_MOSI*%
%TO.N,/D10_LED*%
X73382000Y-87000000D03*
%TO.P,U3,12,3V3*%
%TO.N,unconnected-(U3-3V3-Pad12)*%
X73382000Y-84460000D03*
%TO.P,U3,13,GND*%
%TO.N,GND*%
X73382000Y-81920000D03*
%TO.P,U3,14,VBUS*%
%TO.N,unconnected-(U3-VBUS-Pad14)*%
X73382000Y-79380000D03*
D16*
%TO.P,U3,15,BAT*%
%TO.N,+3.3V*%
X62460000Y-104780000D03*
%TO.P,U3,16,GND*%
%TO.N,GND*%
X67540000Y-104780000D03*
%TD*%
D17*
%TO.P,D1,1,K*%
%TO.N,GND*%
X66500000Y-140212500D03*
%TO.P,D1,2,A*%
%TO.N,Net-(D1-A)*%
X66500000Y-141787500D03*
%TD*%
D18*
%TO.P,U2,1,GND*%
%TO.N,GND*%
X55416053Y-145460000D03*
D19*
%TO.P,U2,2,VIN*%
%TO.N,Net-(SW1-C)*%
X57956053Y-146730000D03*
%TO.P,U2,3,VOUT*%
%TO.N,+3.3V*%
X55416053Y-148000000D03*
%TD*%
D20*
%TO.P,SW1,1,A*%
%TO.N,unconnected-(SW1-A-Pad1)*%
X62500000Y-141000000D03*
%TO.P,SW1,2,B*%
%TO.N,Net-(J1-Pin_2)*%
X60000000Y-141000000D03*
%TO.P,SW1,3,C*%
%TO.N,Net-(SW1-C)*%
X57500000Y-141000000D03*
%TD*%
D11*
%TO.P,C3,1*%
%TO.N,+3.3V*%
X61225000Y-148000000D03*
%TO.P,C3,2*%
%TO.N,GND*%
X62775000Y-148000000D03*
%TD*%
D21*
%TO.P,R1,1*%
%TO.N,/D10_LED*%
X68500000Y-140175000D03*
%TO.P,R1,2*%
%TO.N,Net-(D1-A)*%
X68500000Y-141825000D03*
%TD*%
D22*
%TO.N,+3.3V*%
X52500000Y-114000000D02*
X52500000Y-113500000D01*
X52500000Y-113500000D02*
X52500000Y-108500000D01*
X52500000Y-114500000D02*
X52500000Y-114000000D01*
X53275000Y-107000000D02*
X53275000Y-105000000D01*
X55416053Y-148000000D02*
X54000000Y-148000000D01*
X62240000Y-105000000D02*
X62460000Y-104780000D01*
X54000000Y-148000000D02*
X52500000Y-146500000D01*
X53250000Y-107750000D02*
X53275000Y-107725000D01*
X55416053Y-148000000D02*
X61225000Y-148000000D01*
X57300000Y-107750000D02*
X59920000Y-110370000D01*
X53275000Y-107725000D02*
X53275000Y-107000000D01*
X53275000Y-105000000D02*
X62240000Y-105000000D01*
X53275000Y-107025000D02*
X54000000Y-107750000D01*
X52500000Y-108500000D02*
X53250000Y-107750000D01*
X52500000Y-146500000D02*
X52500000Y-114500000D01*
X53275000Y-107000000D02*
X53275000Y-107025000D01*
X54000000Y-107750000D02*
X57300000Y-107750000D01*
X53250000Y-107750000D02*
X54000000Y-107750000D01*
%TO.N,Net-(SW1-C)*%
X57956053Y-146730000D02*
X57956053Y-146456053D01*
X57500000Y-146000000D02*
X57500000Y-141000000D01*
X60460000Y-145500000D02*
X59230000Y-146730000D01*
X61225000Y-145500000D02*
X60460000Y-145500000D01*
X57956053Y-146456053D02*
X57500000Y-146000000D01*
X59230000Y-146730000D02*
X57956053Y-146730000D01*
D23*
%TO.N,Net-(D1-A)*%
X66537500Y-141825000D02*
X66500000Y-141787500D01*
X68500000Y-141825000D02*
X66537500Y-141825000D01*
D22*
%TO.N,Net-(J1-Pin_2)*%
X61500000Y-143500000D02*
X60000000Y-142000000D01*
X60000000Y-142000000D02*
X60000000Y-141000000D01*
X66500000Y-143500000D02*
X61500000Y-143500000D01*
X72500000Y-147050000D02*
X70050000Y-147050000D01*
X70050000Y-147050000D02*
X66500000Y-143500000D01*
D23*
%TO.N,/D10_LED*%
X68500000Y-140175000D02*
X78000000Y-130675000D01*
X78000000Y-130675000D02*
X78000000Y-89000000D01*
X76000000Y-87000000D02*
X72620000Y-87000000D01*
X78000000Y-89000000D02*
X76000000Y-87000000D01*
%TO.N,/OLED_SDA*%
X61040000Y-89540000D02*
X65000000Y-93500000D01*
X57380000Y-89540000D02*
X61040000Y-89540000D01*
X65000000Y-93500000D02*
X65000000Y-110370000D01*
%TO.N,/OLED_SCL*%
X62460000Y-110370000D02*
X64000000Y-108830000D01*
X64000000Y-95000000D02*
X61080000Y-92080000D01*
X61080000Y-92080000D02*
X57380000Y-92080000D01*
X64000000Y-108830000D02*
X64000000Y-95000000D01*
%TO.N,Net-(U1-CS)*%
X70500000Y-109000000D02*
X72000000Y-109000000D01*
X72620000Y-109620000D02*
X72620000Y-110370000D01*
X70080000Y-109420000D02*
X70500000Y-109000000D01*
X72000000Y-109000000D02*
X72620000Y-109620000D01*
X70080000Y-110370000D02*
X70080000Y-109420000D01*
%TD*%
%TA.AperFunction,Conductor*%
%TO.N,GND*%
G36*
X79442539Y-75520185D02*
G01*
X79488294Y-75572989D01*
X79499500Y-75624500D01*
X79499500Y-149375500D01*
X79479815Y-149442539D01*
X79427011Y-149488294D01*
X79375500Y-149499500D01*
X50624500Y-149499500D01*
X50557461Y-149479815D01*
X50511706Y-149427011D01*
X50500500Y-149375500D01*
X50500500Y-146573920D01*
X51749499Y-146573920D01*
X51778340Y-146718907D01*
X51778343Y-146718917D01*
X51834914Y-146855492D01*
X51867812Y-146904727D01*
X51867813Y-146904730D01*
X51917046Y-146978414D01*
X51917052Y-146978421D01*
X53521580Y-148582948D01*
X53521584Y-148582951D01*
X53644498Y-148665080D01*
X53644511Y-148665087D01*
X53781082Y-148721656D01*
X53781087Y-148721658D01*
X53781091Y-148721658D01*
X53781092Y-148721659D01*
X53926079Y-148750500D01*
X53926082Y-148750500D01*
X54073917Y-148750500D01*
X54353304Y-148750500D01*
X54420343Y-148770185D01*
X54453620Y-148801612D01*
X54462759Y-148814190D01*
X54601863Y-148953294D01*
X54761015Y-149068925D01*
X54843827Y-149111120D01*
X54936291Y-149158233D01*
X54936293Y-149158233D01*
X54936296Y-149158235D01*
X55036583Y-149190820D01*
X55123390Y-149219026D01*
X55317687Y-149249800D01*
X55317692Y-149249800D01*
X55514419Y-149249800D01*
X55708715Y-149219026D01*
X55895810Y-149158235D01*
X56071091Y-149068925D01*
X56230243Y-148953294D01*
X56369347Y-148814190D01*
X56378486Y-148801612D01*
X56433817Y-148758948D01*
X56478802Y-148750500D01*
X60423126Y-148750500D01*
X60490165Y-148770185D01*
X60510807Y-148786819D01*
X60546955Y-148822967D01*
X60546959Y-148822970D01*
X60691294Y-148911998D01*
X60691297Y-148911999D01*
X60691303Y-148912003D01*
X60852292Y-148965349D01*
X60951655Y-148975500D01*
X61498344Y-148975499D01*
X61498352Y-148975498D01*
X61498355Y-148975498D01*
X61552760Y-148969940D01*
X61597708Y-148965349D01*
X61758697Y-148912003D01*
X61903044Y-148822968D01*
X62022968Y-148703044D01*
X62112003Y-148558697D01*
X62165349Y-148397708D01*
X62175500Y-148298345D01*
X62175499Y-147701656D01*
X62165349Y-147602292D01*
X62112003Y-147441303D01*
X62111999Y-147441297D01*
X62111998Y-147441294D01*
X62022970Y-147296959D01*
X62022967Y-147296955D01*
X61903044Y-147177032D01*
X61903040Y-147177029D01*
X61758705Y-147088001D01*
X61758699Y-147087998D01*
X61758697Y-147087997D01*
X61756234Y-147087181D01*
X61597709Y-147034651D01*
X61498346Y-147024500D01*
X60951662Y-147024500D01*
X60951644Y-147024501D01*
X60852292Y-147034650D01*
X60852289Y-147034651D01*
X60691305Y-147087996D01*
X60691294Y-147088001D01*
X60546959Y-147177029D01*
X60546955Y-147177032D01*
X60510807Y-147213181D01*
X60449484Y-147246666D01*
X60423126Y-147249500D01*
X60071230Y-147249500D01*
X60004191Y-147229815D01*
X59958436Y-147177011D01*
X59948492Y-147107853D01*
X59977517Y-147044297D01*
X59983549Y-147037819D01*
X60274488Y-146746879D01*
X60575676Y-146445689D01*
X60636997Y-146412206D01*
X60702356Y-146415665D01*
X60852292Y-146465349D01*
X60951655Y-146475500D01*
X61498344Y-146475499D01*
X61498352Y-146475498D01*
X61498355Y-146475498D01*
X61552760Y-146469940D01*
X61597708Y-146465349D01*
X61758697Y-146412003D01*
X61903044Y-146322968D01*
X62022968Y-146203044D01*
X62112003Y-146058697D01*
X62165349Y-145897708D01*
X62175500Y-145798345D01*
X62175499Y-145201656D01*
X62165349Y-145102292D01*
X62112003Y-144941303D01*
X62111999Y-144941297D01*
X62111998Y-144941294D01*
X62022970Y-144796959D01*
X62022967Y-144796955D01*
X61903044Y-144677032D01*
X61903040Y-144677029D01*
X61758705Y-144588001D01*
X61758699Y-144587998D01*
X61758697Y-144587997D01*
X61758694Y-144587996D01*
X61597709Y-144534651D01*
X61498346Y-144524500D01*
X60951662Y-144524500D01*
X60951644Y-144524501D01*
X60852292Y-144534650D01*
X60852289Y-144534651D01*
X60691305Y-144587996D01*
X60691294Y-144588001D01*
X60546959Y-144677029D01*
X60546955Y-144677032D01*
X60510807Y-144713181D01*
X60449484Y-144746666D01*
X60423126Y-144749500D01*
X60386076Y-144749500D01*
X60357242Y-144755234D01*
X60357243Y-144755235D01*
X60241093Y-144778339D01*
X60241083Y-144778342D01*
X60161081Y-144811479D01*
X60161082Y-144811480D01*
X60104505Y-144834915D01*
X60022372Y-144889795D01*
X59981585Y-144917047D01*
X59981581Y-144917050D01*
X59033765Y-145864866D01*
X58972442Y-145898351D01*
X58902750Y-145893367D01*
X58858403Y-145864866D01*
X58770245Y-145776708D01*
X58770243Y-145776706D01*
X58611091Y-145661075D01*
X58435814Y-145571766D01*
X58336181Y-145539393D01*
X58278506Y-145499955D01*
X58251308Y-145435596D01*
X58250500Y-145421462D01*
X58250500Y-142078446D01*
X58270185Y-142011407D01*
X58301614Y-141978129D01*
X58322464Y-141962981D01*
X58462981Y-141822464D01*
X58579787Y-141661694D01*
X58639515Y-141544470D01*
X58687490Y-141493675D01*
X58755311Y-141476880D01*
X58821445Y-141499417D01*
X58860484Y-141544469D01*
X58920213Y-141661694D01*
X59037019Y-141822464D01*
X59177536Y-141962981D01*
X59198384Y-141978128D01*
X59241050Y-142033455D01*
X59247536Y-142067992D01*
X59248903Y-142067858D01*
X59249499Y-142073920D01*
X59278340Y-142218907D01*
X59278343Y-142218917D01*
X59334912Y-142355488D01*
X59334916Y-142355495D01*
X59350828Y-142379309D01*
X59350829Y-142379312D01*
X59417046Y-142478414D01*
X59417052Y-142478421D01*
X59806445Y-142867813D01*
X60917048Y-143978415D01*
X60917049Y-143978416D01*
X61021584Y-144082951D01*
X61021585Y-144082952D01*
X61144498Y-144165080D01*
X61144511Y-144165087D01*
X61254632Y-144210700D01*
X61281087Y-144221658D01*
X61281091Y-144221658D01*
X61281092Y-144221659D01*
X61426079Y-144250500D01*
X61426082Y-144250500D01*
X66137770Y-144250500D01*
X66204809Y-144270185D01*
X66225451Y-144286819D01*
X69571580Y-147632948D01*
X69571584Y-147632951D01*
X69694498Y-147715080D01*
X69694511Y-147715087D01*
X69831082Y-147771656D01*
X69831087Y-147771658D01*
X69831091Y-147771658D01*
X69831092Y-147771659D01*
X69976079Y-147800500D01*
X69976082Y-147800500D01*
X70123917Y-147800500D01*
X71431173Y-147800500D01*
X71498212Y-147820185D01*
X71541656Y-147868204D01*
X71558479Y-147901220D01*
X71558769Y-147901790D01*
X71558770Y-147901792D01*
X71601100Y-147960053D01*
X71660586Y-148041928D01*
X71783072Y-148164414D01*
X71923212Y-148266232D01*
X72077555Y-148344873D01*
X72242299Y-148398402D01*
X72413389Y-148425500D01*
X72413390Y-148425500D01*
X72586610Y-148425500D01*
X72586611Y-148425500D01*
X72757701Y-148398402D01*
X72922445Y-148344873D01*
X73076788Y-148266232D01*
X73216928Y-148164414D01*
X73324836Y-148056505D01*
X73386155Y-148023023D01*
X73455847Y-148028007D01*
X73511781Y-148069878D01*
X73518053Y-148079093D01*
X73557682Y-148143343D01*
X73681654Y-148267315D01*
X73830875Y-148359356D01*
X73830880Y-148359358D01*
X73997302Y-148414505D01*
X73997309Y-148414506D01*
X74100019Y-148424999D01*
X74249999Y-148424999D01*
X74250000Y-148424998D01*
X74250000Y-147330330D01*
X74269745Y-147350075D01*
X74355255Y-147399444D01*
X74450630Y-147425000D01*
X74549370Y-147425000D01*
X74644745Y-147399444D01*
X74730255Y-147350075D01*
X74750000Y-147330330D01*
X74750000Y-148424999D01*
X74899972Y-148424999D01*
X74899986Y-148424998D01*
X75002697Y-148414505D01*
X75169119Y-148359358D01*
X75169124Y-148359356D01*
X75318345Y-148267315D01*
X75442315Y-148143345D01*
X75534356Y-147994124D01*
X75534358Y-147994119D01*
X75589505Y-147827697D01*
X75589506Y-147827690D01*
X75599999Y-147724986D01*
X75600000Y-147724973D01*
X75600000Y-147300000D01*
X74780330Y-147300000D01*
X74800075Y-147280255D01*
X74849444Y-147194745D01*
X74875000Y-147099370D01*
X74875000Y-147000630D01*
X74849444Y-146905255D01*
X74800075Y-146819745D01*
X74780330Y-146800000D01*
X75599999Y-146800000D01*
X75599999Y-146375028D01*
X75599998Y-146375013D01*
X75589505Y-146272302D01*
X75534358Y-146105880D01*
X75534356Y-146105875D01*
X75442315Y-145956654D01*
X75318345Y-145832684D01*
X75169124Y-145740643D01*
X75169119Y-145740641D01*
X75002697Y-145685494D01*
X75002690Y-145685493D01*
X74899986Y-145675000D01*
X74750000Y-145675000D01*
X74750000Y-146769670D01*
X74730255Y-146749925D01*
X74644745Y-146700556D01*
X74549370Y-146675000D01*
X74450630Y-146675000D01*
X74355255Y-146700556D01*
X74269745Y-146749925D01*
X74250000Y-146769670D01*
X74250000Y-145675000D01*
X74100027Y-145675000D01*
X74100012Y-145675001D01*
X73997302Y-145685494D01*
X73830880Y-145740641D01*
X73830875Y-145740643D01*
X73681654Y-145832684D01*
X73557684Y-145956654D01*
X73518053Y-146020907D01*
X73466105Y-146067631D01*
X73397142Y-146078853D01*
X73333060Y-146051010D01*
X73324833Y-146043491D01*
X73216930Y-145935588D01*
X73216928Y-145935586D01*
X73076788Y-145833768D01*
X72922445Y-145755127D01*
X72757701Y-145701598D01*
X72757699Y-145701597D01*
X72757698Y-145701597D01*
X72626271Y-145680781D01*
X72586611Y-145674500D01*
X72413389Y-145674500D01*
X72373728Y-145680781D01*
X72242302Y-145701597D01*
X72077552Y-145755128D01*
X71923211Y-145833768D01*
X71880409Y-145864866D01*
X71783072Y-145935586D01*
X71783070Y-145935588D01*
X71783069Y-145935588D01*
X71660588Y-146058069D01*
X71660588Y-146058070D01*
X71660586Y-146058072D01*
X71653641Y-146067631D01*
X71558770Y-146198207D01*
X71558769Y-146198209D01*
X71556308Y-146203040D01*
X71541656Y-146231795D01*
X71493685Y-146282590D01*
X71431173Y-146299500D01*
X70412229Y-146299500D01*
X70345190Y-146279815D01*
X70324548Y-146263181D01*
X66978421Y-142917052D01*
X66978420Y-142917051D01*
X66978416Y-142917048D01*
X66962604Y-142906483D01*
X66917801Y-142852873D01*
X66909093Y-142783548D01*
X66939247Y-142720520D01*
X66992491Y-142685677D01*
X67062287Y-142662549D01*
X67205391Y-142574281D01*
X67292853Y-142486819D01*
X67319780Y-142472115D01*
X67345599Y-142455523D01*
X67351799Y-142454631D01*
X67354176Y-142453334D01*
X67380534Y-142450500D01*
X67608480Y-142450500D01*
X67675519Y-142470185D01*
X67696161Y-142486819D01*
X67789811Y-142580469D01*
X67789813Y-142580470D01*
X67789815Y-142580472D01*
X67935394Y-142668478D01*
X68097804Y-142719086D01*
X68168384Y-142725500D01*
X68168387Y-142725500D01*
X68831613Y-142725500D01*
X68831616Y-142725500D01*
X68902196Y-142719086D01*
X69064606Y-142668478D01*
X69210185Y-142580472D01*
X69330472Y-142460185D01*
X69418478Y-142314606D01*
X69469086Y-142152196D01*
X69475500Y-142081616D01*
X69475500Y-141568384D01*
X69469086Y-141497804D01*
X69418478Y-141335394D01*
X69330472Y-141189815D01*
X69330470Y-141189813D01*
X69330469Y-141189811D01*
X69228339Y-141087681D01*
X69194854Y-141026358D01*
X69199838Y-140956666D01*
X69228339Y-140912319D01*
X69330468Y-140810189D01*
X69330469Y-140810188D01*
X69330472Y-140810185D01*
X69418478Y-140664606D01*
X69469086Y-140502196D01*
X69475500Y-140431616D01*
X69475500Y-140135451D01*
X69495185Y-140068412D01*
X69511814Y-140047775D01*
X78398729Y-131160860D01*
X78398733Y-131160858D01*
X78485858Y-131073733D01*
X78554311Y-130971286D01*
X78554312Y-130971285D01*
X78554313Y-130971282D01*
X78554315Y-130971279D01*
X78564672Y-130946272D01*
X78601463Y-130857451D01*
X78625500Y-130736607D01*
X78625500Y-130613393D01*
X78625500Y-88938394D01*
X78601463Y-88817548D01*
X78576237Y-88756647D01*
X78554312Y-88703714D01*
X78515934Y-88646279D01*
X78485858Y-88601267D01*
X78485856Y-88601264D01*
X78395637Y-88511045D01*
X78395606Y-88511016D01*
X76493712Y-86609122D01*
X76485860Y-86601270D01*
X76485858Y-86601267D01*
X76398733Y-86514142D01*
X76327607Y-86466617D01*
X76321613Y-86462611D01*
X76321611Y-86462610D01*
X76296285Y-86445687D01*
X76256822Y-86429342D01*
X76215792Y-86412347D01*
X76182452Y-86398537D01*
X76122029Y-86386518D01*
X76117306Y-86385578D01*
X76117304Y-86385578D01*
X76061610Y-86374500D01*
X76061607Y-86374500D01*
X76061606Y-86374500D01*
X75587752Y-86374500D01*
X75520713Y-86354815D01*
X75477267Y-86306795D01*
X75459407Y-86271743D01*
X75451147Y-86260374D01*
X75330857Y-86094806D01*
X75176199Y-85940148D01*
X75176191Y-85940142D01*
X75025028Y-85830316D01*
X74982364Y-85774989D01*
X74976385Y-85705376D01*
X75008990Y-85643580D01*
X75025023Y-85629686D01*
X75176199Y-85519852D01*
X75330852Y-85365199D01*
X75330854Y-85365195D01*
X75330857Y-85365193D01*
X75387229Y-85287601D01*
X75459407Y-85188257D01*
X75558701Y-84993383D01*
X75626286Y-84785375D01*
X75643912Y-84674082D01*
X75660500Y-84569361D01*
X75660500Y-84350638D01*
X75640595Y-84224971D01*
X75626286Y-84134625D01*
X75558701Y-83926617D01*
X75558701Y-83926616D01*
X75524315Y-83859132D01*
X75459407Y-83731743D01*
X75451147Y-83720374D01*
X75330857Y-83554806D01*
X75176197Y-83400146D01*
X75176192Y-83400142D01*
X75024605Y-83290008D01*
X74981939Y-83234678D01*
X74975960Y-83165065D01*
X75008565Y-83103270D01*
X75024605Y-83089371D01*
X75175873Y-82979469D01*
X75330471Y-82824871D01*
X75330475Y-82824866D01*
X75458976Y-82647998D01*
X75558237Y-82453191D01*
X75558238Y-82453188D01*
X75625798Y-82245258D01*
X75637718Y-82170000D01*
X73062251Y-82170000D01*
X73093381Y-82116081D01*
X73128000Y-81986880D01*
X73128000Y-81853120D01*
X73093381Y-81723919D01*
X73062251Y-81670000D01*
X75637718Y-81670000D01*
X75625798Y-81594741D01*
X75558238Y-81386811D01*
X75558237Y-81386808D01*
X75458976Y-81192001D01*
X75330475Y-81015133D01*
X75330471Y-81015128D01*
X75175871Y-80860528D01*
X75175866Y-80860524D01*
X75024605Y-80750627D01*
X74981939Y-80695297D01*
X74975960Y-80625684D01*
X75008565Y-80563889D01*
X75024599Y-80549994D01*
X75176199Y-80439852D01*
X75330852Y-80285199D01*
X75330854Y-80285195D01*
X75330857Y-80285193D01*
X75387229Y-80207601D01*
X75459407Y-80108257D01*
X75558701Y-79913383D01*
X75626286Y-79705375D01*
X75643912Y-79594082D01*
X75660500Y-79489361D01*
X75660500Y-79270638D01*
X75640595Y-79144971D01*
X75626286Y-79054625D01*
X75558701Y-78846617D01*
X75558701Y-78846616D01*
X75524315Y-78779132D01*
X75459407Y-78651743D01*
X75451147Y-78640374D01*
X75330857Y-78474806D01*
X75176193Y-78320142D01*
X74999260Y-78191595D01*
X74999259Y-78191594D01*
X74999257Y-78191593D01*
X74936825Y-78159782D01*
X74804383Y-78092298D01*
X74804380Y-78092297D01*
X74596376Y-78024714D01*
X74380361Y-77990500D01*
X74380356Y-77990500D01*
X72383644Y-77990500D01*
X72383639Y-77990500D01*
X72167623Y-78024714D01*
X71959619Y-78092297D01*
X71959616Y-78092298D01*
X71764739Y-78191595D01*
X71587806Y-78320142D01*
X71433142Y-78474806D01*
X71304595Y-78651739D01*
X71205298Y-78846616D01*
X71205297Y-78846619D01*
X71137714Y-79054623D01*
X71103500Y-79270638D01*
X71103500Y-79489361D01*
X71137714Y-79705376D01*
X71205297Y-79913380D01*
X71205298Y-79913383D01*
X71304595Y-80108260D01*
X71433142Y-80285193D01*
X71587802Y-80439853D01*
X71587807Y-80439857D01*
X71739394Y-80549991D01*
X71782060Y-80605320D01*
X71788039Y-80674934D01*
X71755434Y-80736729D01*
X71739394Y-80750627D01*
X71588133Y-80860524D01*
X71588128Y-80860528D01*
X71433528Y-81015128D01*
X71433524Y-81015133D01*
X71305023Y-81192001D01*
X71205762Y-81386808D01*
X71205761Y-81386811D01*
X71138201Y-81594741D01*
X71126282Y-81670000D01*
X72177749Y-81670000D01*
X72146619Y-81723919D01*
X72112000Y-81853120D01*
X72112000Y-81986880D01*
X72146619Y-82116081D01*
X72177749Y-82170000D01*
X71126282Y-82170000D01*
X71138201Y-82245258D01*
X71205761Y-82453188D01*
X71205762Y-82453191D01*
X71305023Y-82647998D01*
X71433524Y-82824866D01*
X71433528Y-82824871D01*
X71588128Y-82979471D01*
X71588133Y-82979475D01*
X71739394Y-83089372D01*
X71782060Y-83144701D01*
X71788039Y-83214315D01*
X71755434Y-83276110D01*
X71739394Y-83290008D01*
X71587807Y-83400142D01*
X71587802Y-83400146D01*
X71433142Y-83554806D01*
X71304595Y-83731739D01*
X71205298Y-83926616D01*
X71205297Y-83926619D01*
X71137714Y-84134623D01*
X71103500Y-84350638D01*
X71103500Y-84569361D01*
X71137714Y-84785376D01*
X71205297Y-84993380D01*
X71205298Y-84993383D01*
X71304595Y-85188260D01*
X71433142Y-85365193D01*
X71587806Y-85519857D01*
X71738969Y-85629682D01*
X71781635Y-85685011D01*
X71787614Y-85754625D01*
X71755009Y-85816420D01*
X71738969Y-85830318D01*
X71587806Y-85940142D01*
X71433142Y-86094806D01*
X71304595Y-86271739D01*
X71205298Y-86466616D01*
X71205299Y-86466617D01*
X71137714Y-86674623D01*
X71103500Y-86890638D01*
X71103500Y-87109361D01*
X71137714Y-87325376D01*
X71205297Y-87533380D01*
X71205298Y-87533383D01*
X71304595Y-87728260D01*
X71433142Y-87905193D01*
X71587806Y-88059857D01*
X71738969Y-88169682D01*
X71781635Y-88225011D01*
X71787614Y-88294625D01*
X71755009Y-88356420D01*
X71738969Y-88370318D01*
X71587806Y-88480142D01*
X71433142Y-88634806D01*
X71304595Y-88811739D01*
X71205298Y-89006616D01*
X71205299Y-89006617D01*
X71137714Y-89214623D01*
X71103500Y-89430638D01*
X71103500Y-89649361D01*
X71137714Y-89865376D01*
X71205297Y-90073380D01*
X71205298Y-90073383D01*
X71304595Y-90268260D01*
X71433142Y-90445193D01*
X71587806Y-90599857D01*
X71738969Y-90709682D01*
X71781635Y-90765011D01*
X71787614Y-90834625D01*
X71755009Y-90896420D01*
X71738969Y-90910318D01*
X71587806Y-91020142D01*
X71433142Y-91174806D01*
X71304595Y-91351739D01*
X71205298Y-91546616D01*
X71205299Y-91546617D01*
X71137714Y-91754623D01*
X71103500Y-91970638D01*
X71103500Y-92189361D01*
X71137714Y-92405376D01*
X71205297Y-92613380D01*
X71205298Y-92613383D01*
X71304595Y-92808260D01*
X71433142Y-92985193D01*
X71587806Y-93139857D01*
X71738969Y-93249682D01*
X71781635Y-93305011D01*
X71787614Y-93374625D01*
X71755009Y-93436420D01*
X71738969Y-93450318D01*
X71587806Y-93560142D01*
X71433142Y-93714806D01*
X71304595Y-93891739D01*
X71205298Y-94086616D01*
X71205297Y-94086619D01*
X71137714Y-94294623D01*
X71103500Y-94510638D01*
X71103500Y-94729361D01*
X71137714Y-94945376D01*
X71205297Y-95153380D01*
X71205298Y-95153383D01*
X71304595Y-95348260D01*
X71433142Y-95525193D01*
X71587806Y-95679857D01*
X71753374Y-95800147D01*
X71764743Y-95808407D01*
X71892132Y-95873315D01*
X71959616Y-95907701D01*
X71959619Y-95907702D01*
X72063621Y-95941493D01*
X72167625Y-95975286D01*
X72267672Y-95991132D01*
X72383639Y-96009500D01*
X72383644Y-96009500D01*
X74380361Y-96009500D01*
X74485082Y-95992912D01*
X74596375Y-95975286D01*
X74804383Y-95907701D01*
X74999257Y-95808407D01*
X75098601Y-95736229D01*
X75176193Y-95679857D01*
X75176195Y-95679854D01*
X75176199Y-95679852D01*
X75330852Y-95525199D01*
X75330854Y-95525195D01*
X75330857Y-95525193D01*
X75387229Y-95447601D01*
X75459407Y-95348257D01*
X75558701Y-95153383D01*
X75626286Y-94945375D01*
X75643912Y-94834082D01*
X75660500Y-94729361D01*
X75660500Y-94510638D01*
X75627666Y-94303341D01*
X75626286Y-94294625D01*
X75558701Y-94086617D01*
X75558701Y-94086616D01*
X75524315Y-94019132D01*
X75459407Y-93891743D01*
X75451147Y-93880374D01*
X75330857Y-93714806D01*
X75176199Y-93560148D01*
X75176191Y-93560142D01*
X75025028Y-93450316D01*
X74982364Y-93394989D01*
X74976385Y-93325376D01*
X75008990Y-93263580D01*
X75025023Y-93249686D01*
X75176199Y-93139852D01*
X75330852Y-92985199D01*
X75330854Y-92985195D01*
X75330857Y-92985193D01*
X75387229Y-92907601D01*
X75459407Y-92808257D01*
X75558701Y-92613383D01*
X75626286Y-92405375D01*
X75643912Y-92294082D01*
X75660500Y-92189361D01*
X75660500Y-91970638D01*
X75640595Y-91844971D01*
X75626286Y-91754625D01*
X75558701Y-91546617D01*
X75558701Y-91546616D01*
X75511765Y-91454500D01*
X75459407Y-91351743D01*
X75451147Y-91340374D01*
X75330857Y-91174806D01*
X75176199Y-91020148D01*
X75176191Y-91020142D01*
X75025028Y-90910316D01*
X74982364Y-90854989D01*
X74976385Y-90785376D01*
X75008990Y-90723580D01*
X75025023Y-90709686D01*
X75176199Y-90599852D01*
X75330852Y-90445199D01*
X75330854Y-90445195D01*
X75330857Y-90445193D01*
X75387229Y-90367601D01*
X75459407Y-90268257D01*
X75558701Y-90073383D01*
X75626286Y-89865375D01*
X75643912Y-89754082D01*
X75660500Y-89649361D01*
X75660500Y-89430638D01*
X75637289Y-89284094D01*
X75626286Y-89214625D01*
X75558701Y-89006617D01*
X75558701Y-89006616D01*
X75511765Y-88914500D01*
X75459407Y-88811743D01*
X75451147Y-88800374D01*
X75330857Y-88634806D01*
X75176199Y-88480148D01*
X75176191Y-88480142D01*
X75025028Y-88370316D01*
X74982364Y-88314989D01*
X74976385Y-88245376D01*
X75008990Y-88183580D01*
X75025023Y-88169686D01*
X75176199Y-88059852D01*
X75330852Y-87905199D01*
X75330854Y-87905195D01*
X75330857Y-87905193D01*
X75387229Y-87827601D01*
X75459407Y-87728257D01*
X75477267Y-87693204D01*
X75487716Y-87682140D01*
X75494039Y-87668297D01*
X75511219Y-87657255D01*
X75525242Y-87642409D01*
X75540921Y-87638167D01*
X75552817Y-87630523D01*
X75587752Y-87625500D01*
X75689548Y-87625500D01*
X75756587Y-87645185D01*
X75777229Y-87661819D01*
X77338181Y-89222771D01*
X77371666Y-89284094D01*
X77374500Y-89310452D01*
X77374500Y-130364548D01*
X77354815Y-130431587D01*
X77338181Y-130452229D01*
X68552229Y-139238181D01*
X68490906Y-139271666D01*
X68464548Y-139274500D01*
X68168384Y-139274500D01*
X68149145Y-139276248D01*
X68097807Y-139280913D01*
X67935393Y-139331522D01*
X67789811Y-139419530D01*
X67669530Y-139539811D01*
X67581522Y-139685393D01*
X67530913Y-139847807D01*
X67524500Y-139918386D01*
X67524500Y-140431613D01*
X67530913Y-140502192D01*
X67530913Y-140502194D01*
X67530914Y-140502196D01*
X67581522Y-140664606D01*
X67605555Y-140704362D01*
X67669530Y-140810188D01*
X67771661Y-140912319D01*
X67775999Y-140920264D01*
X67783247Y-140925690D01*
X67792481Y-140950449D01*
X67805146Y-140973642D01*
X67804500Y-140982671D01*
X67807664Y-140991154D01*
X67802047Y-141016974D01*
X67800162Y-141043334D01*
X67794343Y-141052387D01*
X67792812Y-141059427D01*
X67771661Y-141087681D01*
X67696161Y-141163181D01*
X67634838Y-141196666D01*
X67608480Y-141199500D01*
X67442765Y-141199500D01*
X67375726Y-141179815D01*
X67337227Y-141140598D01*
X67324281Y-141119609D01*
X67205391Y-141000719D01*
X67205387Y-141000716D01*
X67062295Y-140912455D01*
X67062289Y-140912452D01*
X67062287Y-140912451D01*
X66902685Y-140859564D01*
X66902683Y-140859563D01*
X66804181Y-140849500D01*
X66804174Y-140849500D01*
X66195826Y-140849500D01*
X66195818Y-140849500D01*
X66097316Y-140859563D01*
X66097315Y-140859564D01*
X66018219Y-140885773D01*
X65937715Y-140912450D01*
X65937704Y-140912455D01*
X65794612Y-141000716D01*
X65794608Y-141000719D01*
X65675719Y-141119608D01*
X65675716Y-141119612D01*
X65587455Y-141262704D01*
X65587451Y-141262713D01*
X65534564Y-141422315D01*
X65534564Y-141422316D01*
X65534563Y-141422316D01*
X65524500Y-141520818D01*
X65524500Y-142054181D01*
X65534563Y-142152683D01*
X65587450Y-142312284D01*
X65587455Y-142312295D01*
X65675716Y-142455387D01*
X65675719Y-142455391D01*
X65758147Y-142537819D01*
X65791632Y-142599142D01*
X65786648Y-142668834D01*
X65744776Y-142724767D01*
X65679312Y-142749184D01*
X65670466Y-142749500D01*
X61862229Y-142749500D01*
X61795190Y-142729815D01*
X61774548Y-142713181D01*
X61004561Y-141943193D01*
X60971076Y-141881870D01*
X60976060Y-141812178D01*
X60991921Y-141782630D01*
X61079787Y-141661694D01*
X61139515Y-141544470D01*
X61187490Y-141493675D01*
X61255311Y-141476880D01*
X61321445Y-141499417D01*
X61360484Y-141544469D01*
X61420213Y-141661694D01*
X61537019Y-141822464D01*
X61677536Y-141962981D01*
X61838306Y-142079787D01*
X61925149Y-142124035D01*
X62015367Y-142170005D01*
X62015370Y-142170006D01*
X62109866Y-142200709D01*
X62204364Y-142231413D01*
X62400639Y-142262500D01*
X62400640Y-142262500D01*
X62599360Y-142262500D01*
X62599361Y-142262500D01*
X62795636Y-142231413D01*
X62984632Y-142170005D01*
X63161694Y-142079787D01*
X63322464Y-141962981D01*
X63462981Y-141822464D01*
X63579787Y-141661694D01*
X63670005Y-141484632D01*
X63731413Y-141295636D01*
X63762500Y-141099361D01*
X63762500Y-140900639D01*
X63731413Y-140704364D01*
X63700709Y-140609866D01*
X63670006Y-140515370D01*
X63670005Y-140515367D01*
X63579786Y-140338305D01*
X63462981Y-140177536D01*
X63322464Y-140037019D01*
X63161694Y-139920213D01*
X63158104Y-139918384D01*
X62984632Y-139829994D01*
X62984629Y-139829993D01*
X62795637Y-139768587D01*
X62697498Y-139753043D01*
X62599361Y-139737500D01*
X62400639Y-139737500D01*
X62335214Y-139747862D01*
X62204362Y-139768587D01*
X62015370Y-139829993D01*
X62015367Y-139829994D01*
X61838305Y-139920213D01*
X61677533Y-140037021D01*
X61537021Y-140177533D01*
X61420213Y-140338305D01*
X61360485Y-140455528D01*
X61312510Y-140506324D01*
X61244689Y-140523119D01*
X61178554Y-140500581D01*
X61139515Y-140455528D01*
X61079786Y-140338305D01*
X60962981Y-140177536D01*
X60822464Y-140037019D01*
X60661694Y-139920213D01*
X60658104Y-139918384D01*
X60484632Y-139829994D01*
X60484629Y-139829993D01*
X60295637Y-139768587D01*
X60197498Y-139753043D01*
X60099361Y-139737500D01*
X59900639Y-139737500D01*
X59835214Y-139747862D01*
X59704362Y-139768587D01*
X59515370Y-139829993D01*
X59515367Y-139829994D01*
X59338305Y-139920213D01*
X59177533Y-140037021D01*
X59037021Y-140177533D01*
X58920213Y-140338305D01*
X58860485Y-140455528D01*
X58812510Y-140506324D01*
X58744689Y-140523119D01*
X58678554Y-140500581D01*
X58639515Y-140455528D01*
X58579786Y-140338305D01*
X58462981Y-140177536D01*
X58322464Y-140037019D01*
X58161694Y-139920213D01*
X58158104Y-139918384D01*
X57984632Y-139829994D01*
X57984629Y-139829993D01*
X57795637Y-139768587D01*
X57697498Y-139753043D01*
X57599361Y-139737500D01*
X57400639Y-139737500D01*
X57335214Y-139747862D01*
X57204362Y-139768587D01*
X57015370Y-139829993D01*
X57015367Y-139829994D01*
X56838305Y-139920213D01*
X56677533Y-140037021D01*
X56537021Y-140177533D01*
X56420213Y-140338305D01*
X56329994Y-140515367D01*
X56329993Y-140515370D01*
X56268587Y-140704362D01*
X56251826Y-140810188D01*
X56237500Y-140900639D01*
X56237500Y-141099361D01*
X56244031Y-141140597D01*
X56268587Y-141295637D01*
X56329993Y-141484629D01*
X56329994Y-141484632D01*
X56420213Y-141661694D01*
X56537019Y-141822464D01*
X56677536Y-141962981D01*
X56698384Y-141978128D01*
X56741050Y-142033455D01*
X56749500Y-142078446D01*
X56749500Y-144284131D01*
X56729815Y-144351170D01*
X56677011Y-144396925D01*
X56607853Y-144406869D01*
X56544297Y-144377844D01*
X56526235Y-144358444D01*
X56522542Y-144353511D01*
X56522540Y-144353509D01*
X56407446Y-144267349D01*
X56407439Y-144267345D01*
X56272732Y-144217103D01*
X56272725Y-144217101D01*
X56213197Y-144210700D01*
X55666053Y-144210700D01*
X55666053Y-145032414D01*
X55607232Y-144998454D01*
X55481260Y-144964700D01*
X55350846Y-144964700D01*
X55224874Y-144998454D01*
X55166053Y-145032414D01*
X55166053Y-144210700D01*
X54618908Y-144210700D01*
X54559380Y-144217101D01*
X54559373Y-144217103D01*
X54424666Y-144267345D01*
X54424659Y-144267349D01*
X54309565Y-144353509D01*
X54309562Y-144353512D01*
X54223402Y-144468606D01*
X54223398Y-144468613D01*
X54173156Y-144603320D01*
X54173154Y-144603327D01*
X54166753Y-144662855D01*
X54166753Y-145210000D01*
X54988467Y-145210000D01*
X54954507Y-145268821D01*
X54920753Y-145394793D01*
X54920753Y-145525207D01*
X54954507Y-145651179D01*
X54988467Y-145710000D01*
X54166753Y-145710000D01*
X54166753Y-146257144D01*
X54173154Y-146316672D01*
X54173156Y-146316679D01*
X54223398Y-146451386D01*
X54223402Y-146451393D01*
X54309562Y-146566487D01*
X54309565Y-146566490D01*
X54424659Y-146652650D01*
X54424666Y-146652654D01*
X54559373Y-146702896D01*
X54559380Y-146702898D01*
X54618908Y-146709299D01*
X54618925Y-146709300D01*
X54684629Y-146709300D01*
X54751668Y-146728985D01*
X54797423Y-146781789D01*
X54807367Y-146850947D01*
X54778342Y-146914503D01*
X54757515Y-146933617D01*
X54601863Y-147046706D01*
X54601861Y-147046708D01*
X54601860Y-147046708D01*
X54462761Y-147185807D01*
X54462756Y-147185813D01*
X54457374Y-147193221D01*
X54402042Y-147235884D01*
X54332428Y-147241859D01*
X54270635Y-147209250D01*
X54269379Y-147208011D01*
X53286819Y-146225451D01*
X53253334Y-146164128D01*
X53250500Y-146137770D01*
X53250500Y-108862229D01*
X53270185Y-108795190D01*
X53286819Y-108774548D01*
X53524548Y-108536819D01*
X53585871Y-108503334D01*
X53612229Y-108500500D01*
X53926082Y-108500500D01*
X53926083Y-108500500D01*
X54073918Y-108500500D01*
X56937770Y-108500500D01*
X57004809Y-108520185D01*
X57025451Y-108536819D01*
X57260732Y-108772100D01*
X57294217Y-108833423D01*
X57289233Y-108903115D01*
X57247361Y-108959048D01*
X57192449Y-108982254D01*
X57052164Y-109004473D01*
X56842589Y-109072567D01*
X56646233Y-109172616D01*
X56582485Y-109218931D01*
X56582485Y-109218932D01*
X57230178Y-109866624D01*
X57177358Y-109880778D01*
X57057643Y-109949896D01*
X56959896Y-110047643D01*
X56890778Y-110167358D01*
X56876624Y-110220177D01*
X56228932Y-109572485D01*
X56228931Y-109572485D01*
X56182616Y-109636233D01*
X56082567Y-109832589D01*
X56014473Y-110042164D01*
X55980000Y-110259818D01*
X55980000Y-110480181D01*
X56014473Y-110697835D01*
X56082567Y-110907410D01*
X56182611Y-111103756D01*
X56228932Y-111167513D01*
X56876624Y-110519821D01*
X56890778Y-110572642D01*
X56959896Y-110692357D01*
X57057643Y-110790104D01*
X57177358Y-110859222D01*
X57230177Y-110873375D01*
X56582485Y-111521065D01*
X56582485Y-111521066D01*
X56646243Y-111567388D01*
X56842589Y-111667432D01*
X57052164Y-111735526D01*
X57269819Y-111770000D01*
X57490181Y-111770000D01*
X57707835Y-111735526D01*
X57917410Y-111667432D01*
X58113760Y-111567386D01*
X58177513Y-111521066D01*
X58177514Y-111521066D01*
X57529822Y-110873375D01*
X57582642Y-110859222D01*
X57702357Y-110790104D01*
X57800104Y-110692357D01*
X57869222Y-110572642D01*
X57883375Y-110519821D01*
X58531066Y-111167514D01*
X58531066Y-111167513D01*
X58549372Y-111142319D01*
X58604701Y-111099653D01*
X58674315Y-111093674D01*
X58736110Y-111126279D01*
X58750008Y-111142319D01*
X58851752Y-111282358D01*
X58851756Y-111282363D01*
X59007636Y-111438243D01*
X59007641Y-111438247D01*
X59121632Y-111521065D01*
X59185978Y-111567815D01*
X59314375Y-111633237D01*
X59382393Y-111667895D01*
X59382396Y-111667896D01*
X59487221Y-111701955D01*
X59592049Y-111736015D01*
X59809778Y-111770500D01*
X59809779Y-111770500D01*
X60030221Y-111770500D01*
X60030222Y-111770500D01*
X60247951Y-111736015D01*
X60457606Y-111667895D01*
X60654022Y-111567815D01*
X60832365Y-111438242D01*
X60988242Y-111282365D01*
X61071686Y-111167514D01*
X61089682Y-111142745D01*
X61145011Y-111100079D01*
X61214625Y-111094100D01*
X61276420Y-111126705D01*
X61290318Y-111142745D01*
X61391752Y-111282358D01*
X61391756Y-111282363D01*
X61547636Y-111438243D01*
X61547641Y-111438247D01*
X61661632Y-111521065D01*
X61725978Y-111567815D01*
X61854375Y-111633237D01*
X61922393Y-111667895D01*
X61922396Y-111667896D01*
X62027221Y-111701955D01*
X62132049Y-111736015D01*
X62349778Y-111770500D01*
X62349779Y-111770500D01*
X62570221Y-111770500D01*
X62570222Y-111770500D01*
X62787951Y-111736015D01*
X62997606Y-111667895D01*
X63194022Y-111567815D01*
X63372365Y-111438242D01*
X63528242Y-111282365D01*
X63611686Y-111167514D01*
X63629682Y-111142745D01*
X63685011Y-111100079D01*
X63754625Y-111094100D01*
X63816420Y-111126705D01*
X63830318Y-111142745D01*
X63931752Y-111282358D01*
X63931756Y-111282363D01*
X64087636Y-111438243D01*
X64087641Y-111438247D01*
X64201632Y-111521065D01*
X64265978Y-111567815D01*
X64394375Y-111633237D01*
X64462393Y-111667895D01*
X64462396Y-111667896D01*
X64567221Y-111701955D01*
X64672049Y-111736015D01*
X64889778Y-111770500D01*
X64889779Y-111770500D01*
X65110221Y-111770500D01*
X65110222Y-111770500D01*
X65327951Y-111736015D01*
X65537606Y-111667895D01*
X65734022Y-111567815D01*
X65912365Y-111438242D01*
X66068242Y-111282365D01*
X66151686Y-111167514D01*
X66169682Y-111142745D01*
X66225011Y-111100079D01*
X66294625Y-111094100D01*
X66356420Y-111126705D01*
X66370318Y-111142745D01*
X66471752Y-111282358D01*
X66471756Y-111282363D01*
X66627636Y-111438243D01*
X66627641Y-111438247D01*
X66741632Y-111521065D01*
X66805978Y-111567815D01*
X66934375Y-111633237D01*
X67002393Y-111667895D01*
X67002396Y-111667896D01*
X67107221Y-111701955D01*
X67212049Y-111736015D01*
X67429778Y-111770500D01*
X67429779Y-111770500D01*
X67650221Y-111770500D01*
X67650222Y-111770500D01*
X67867951Y-111736015D01*
X68077606Y-111667895D01*
X68274022Y-111567815D01*
X68452365Y-111438242D01*
X68608242Y-111282365D01*
X68691686Y-111167514D01*
X68709682Y-111142745D01*
X68765011Y-111100079D01*
X68834625Y-111094100D01*
X68896420Y-111126705D01*
X68910318Y-111142745D01*
X69011752Y-111282358D01*
X69011756Y-111282363D01*
X69167636Y-111438243D01*
X69167641Y-111438247D01*
X69281632Y-111521065D01*
X69345978Y-111567815D01*
X69474375Y-111633237D01*
X69542393Y-111667895D01*
X69542396Y-111667896D01*
X69647221Y-111701955D01*
X69752049Y-111736015D01*
X69969778Y-111770500D01*
X69969779Y-111770500D01*
X70190221Y-111770500D01*
X70190222Y-111770500D01*
X70407951Y-111736015D01*
X70617606Y-111667895D01*
X70814022Y-111567815D01*
X70992365Y-111438242D01*
X71148242Y-111282365D01*
X71231686Y-111167514D01*
X71249682Y-111142745D01*
X71305011Y-111100079D01*
X71374625Y-111094100D01*
X71436420Y-111126705D01*
X71450318Y-111142745D01*
X71551752Y-111282358D01*
X71551756Y-111282363D01*
X71707636Y-111438243D01*
X71707641Y-111438247D01*
X71821632Y-111521065D01*
X71885978Y-111567815D01*
X72014375Y-111633237D01*
X72082393Y-111667895D01*
X72082396Y-111667896D01*
X72187221Y-111701955D01*
X72292049Y-111736015D01*
X72509778Y-111770500D01*
X72509779Y-111770500D01*
X72730221Y-111770500D01*
X72730222Y-111770500D01*
X72947951Y-111736015D01*
X73157606Y-111667895D01*
X73354022Y-111567815D01*
X73532365Y-111438242D01*
X73688242Y-111282365D01*
X73817815Y-111104022D01*
X73917895Y-110907606D01*
X73986015Y-110697951D01*
X74020500Y-110480222D01*
X74020500Y-110259778D01*
X73986015Y-110042049D01*
X73921991Y-109845000D01*
X73917896Y-109832396D01*
X73917895Y-109832393D01*
X73883237Y-109764375D01*
X73817815Y-109635978D01*
X73771685Y-109572485D01*
X73688247Y-109457641D01*
X73688243Y-109457636D01*
X73532363Y-109301756D01*
X73532358Y-109301752D01*
X73354025Y-109172187D01*
X73354024Y-109172186D01*
X73354022Y-109172185D01*
X73245499Y-109116889D01*
X73157606Y-109072104D01*
X73157603Y-109072103D01*
X72947952Y-109003985D01*
X72917193Y-108999113D01*
X72854058Y-108969183D01*
X72848911Y-108964321D01*
X72496020Y-108611430D01*
X72485859Y-108601269D01*
X72485858Y-108601267D01*
X72398733Y-108514142D01*
X72340901Y-108475500D01*
X72334414Y-108471165D01*
X72334408Y-108471160D01*
X72296290Y-108445690D01*
X72296286Y-108445688D01*
X72296279Y-108445685D01*
X72215792Y-108412347D01*
X72182452Y-108398537D01*
X72122029Y-108386518D01*
X72117306Y-108385578D01*
X72117304Y-108385578D01*
X72061610Y-108374500D01*
X72061607Y-108374500D01*
X72061606Y-108374500D01*
X70567741Y-108374500D01*
X70567721Y-108374499D01*
X70561607Y-108374499D01*
X70438394Y-108374499D01*
X70337597Y-108394548D01*
X70337592Y-108394548D01*
X70317549Y-108398536D01*
X70317547Y-108398536D01*
X70270397Y-108418067D01*
X70203719Y-108445685D01*
X70203717Y-108445686D01*
X70101266Y-108514141D01*
X70101263Y-108514144D01*
X69781986Y-108833423D01*
X69681269Y-108934140D01*
X69681267Y-108934142D01*
X69659287Y-108956122D01*
X69594141Y-109021267D01*
X69587323Y-109031471D01*
X69540521Y-109073058D01*
X69345976Y-109172185D01*
X69167641Y-109301752D01*
X69167636Y-109301756D01*
X69011756Y-109457636D01*
X69011752Y-109457641D01*
X68910318Y-109597254D01*
X68854988Y-109639920D01*
X68785375Y-109645899D01*
X68723580Y-109613293D01*
X68709682Y-109597254D01*
X68608247Y-109457641D01*
X68608243Y-109457636D01*
X68452363Y-109301756D01*
X68452358Y-109301752D01*
X68274025Y-109172187D01*
X68274024Y-109172186D01*
X68274022Y-109172185D01*
X68165499Y-109116889D01*
X68077606Y-109072104D01*
X68077603Y-109072103D01*
X67867952Y-109003985D01*
X67730747Y-108982254D01*
X67650222Y-108969500D01*
X67429778Y-108969500D01*
X67357201Y-108980995D01*
X67212047Y-109003985D01*
X67002396Y-109072103D01*
X67002393Y-109072104D01*
X66805974Y-109172187D01*
X66627641Y-109301752D01*
X66627636Y-109301756D01*
X66471756Y-109457636D01*
X66471752Y-109457641D01*
X66370318Y-109597254D01*
X66314988Y-109639920D01*
X66245375Y-109645899D01*
X66183580Y-109613293D01*
X66169682Y-109597254D01*
X66068247Y-109457641D01*
X66068243Y-109457636D01*
X65912363Y-109301756D01*
X65912358Y-109301752D01*
X65734023Y-109172185D01*
X65693204Y-109151386D01*
X65642408Y-109103411D01*
X65625500Y-109040902D01*
X65625500Y-104665686D01*
X66087500Y-104665686D01*
X66087500Y-104894313D01*
X66123265Y-105120124D01*
X66123265Y-105120125D01*
X66193917Y-105337568D01*
X66297711Y-105541276D01*
X66351347Y-105615098D01*
X66351347Y-105615099D01*
X67050504Y-104915941D01*
X67066619Y-104976081D01*
X67133498Y-105091920D01*
X67228080Y-105186502D01*
X67343919Y-105253381D01*
X67404057Y-105269494D01*
X66704899Y-105968651D01*
X66778725Y-106022288D01*
X66778731Y-106022292D01*
X66982431Y-106126082D01*
X67199875Y-106196734D01*
X67425687Y-106232500D01*
X67654313Y-106232500D01*
X67880124Y-106196734D01*
X67880125Y-106196734D01*
X68097568Y-106126082D01*
X68301276Y-106022288D01*
X68375098Y-105968651D01*
X67675942Y-105269495D01*
X67736081Y-105253381D01*
X67851920Y-105186502D01*
X67946502Y-105091920D01*
X68013381Y-104976081D01*
X68029495Y-104915942D01*
X68728651Y-105615098D01*
X68782288Y-105541276D01*
X68886082Y-105337568D01*
X68956734Y-105120125D01*
X68956734Y-105120124D01*
X68992500Y-104894313D01*
X68992500Y-104665686D01*
X68956734Y-104439875D01*
X68956734Y-104439874D01*
X68886082Y-104222431D01*
X68782292Y-104018731D01*
X68782288Y-104018725D01*
X68728651Y-103944900D01*
X68728651Y-103944899D01*
X68029494Y-104644056D01*
X68013381Y-104583919D01*
X67946502Y-104468080D01*
X67851920Y-104373498D01*
X67736081Y-104306619D01*
X67675940Y-104290504D01*
X68375099Y-103591347D01*
X68301276Y-103537711D01*
X68097568Y-103433917D01*
X67880124Y-103363265D01*
X67654313Y-103327500D01*
X67425687Y-103327500D01*
X67199875Y-103363265D01*
X67199874Y-103363265D01*
X66982431Y-103433917D01*
X66778719Y-103537713D01*
X66704900Y-103591346D01*
X66704899Y-103591347D01*
X67404057Y-104290504D01*
X67343919Y-104306619D01*
X67228080Y-104373498D01*
X67133498Y-104468080D01*
X67066619Y-104583919D01*
X67050504Y-104644057D01*
X66351347Y-103944899D01*
X66351346Y-103944900D01*
X66297713Y-104018719D01*
X66193917Y-104222431D01*
X66123265Y-104439874D01*
X66123265Y-104439875D01*
X66087500Y-104665686D01*
X65625500Y-104665686D01*
X65625500Y-93567741D01*
X65625501Y-93567720D01*
X65625501Y-93438391D01*
X65601464Y-93317555D01*
X65601463Y-93317549D01*
X65554312Y-93203715D01*
X65485858Y-93101267D01*
X65485855Y-93101263D01*
X61536394Y-89151804D01*
X61525859Y-89141269D01*
X61525858Y-89141267D01*
X61438733Y-89054142D01*
X61367607Y-89006617D01*
X61336286Y-88985688D01*
X61336287Y-88985688D01*
X61336285Y-88985687D01*
X61296822Y-88969342D01*
X61255792Y-88952347D01*
X61222452Y-88938537D01*
X61162029Y-88926518D01*
X61157306Y-88925578D01*
X61157304Y-88925578D01*
X61101610Y-88914500D01*
X61101607Y-88914500D01*
X61101606Y-88914500D01*
X58823752Y-88914500D01*
X58756713Y-88894815D01*
X58713267Y-88846795D01*
X58698368Y-88817555D01*
X58695407Y-88811743D01*
X58687147Y-88800374D01*
X58566857Y-88634806D01*
X58412199Y-88480148D01*
X58412191Y-88480142D01*
X58261028Y-88370316D01*
X58218364Y-88314989D01*
X58212385Y-88245376D01*
X58244990Y-88183580D01*
X58261023Y-88169686D01*
X58412199Y-88059852D01*
X58566852Y-87905199D01*
X58566854Y-87905195D01*
X58566857Y-87905193D01*
X58623229Y-87827601D01*
X58695407Y-87728257D01*
X58794701Y-87533383D01*
X58862286Y-87325375D01*
X58879912Y-87214082D01*
X58896500Y-87109361D01*
X58896500Y-86890638D01*
X58876595Y-86764971D01*
X58862286Y-86674625D01*
X58794701Y-86466617D01*
X58794701Y-86466616D01*
X58747765Y-86374500D01*
X58695407Y-86271743D01*
X58687147Y-86260374D01*
X58566857Y-86094806D01*
X58412199Y-85940148D01*
X58412191Y-85940142D01*
X58261028Y-85830316D01*
X58218364Y-85774989D01*
X58212385Y-85705376D01*
X58244990Y-85643580D01*
X58261023Y-85629686D01*
X58412199Y-85519852D01*
X58566852Y-85365199D01*
X58566854Y-85365195D01*
X58566857Y-85365193D01*
X58623229Y-85287601D01*
X58695407Y-85188257D01*
X58794701Y-84993383D01*
X58862286Y-84785375D01*
X58879912Y-84674082D01*
X58896500Y-84569361D01*
X58896500Y-84350638D01*
X58876595Y-84224971D01*
X58862286Y-84134625D01*
X58794701Y-83926617D01*
X58794701Y-83926616D01*
X58760315Y-83859132D01*
X58695407Y-83731743D01*
X58687147Y-83720374D01*
X58566857Y-83554806D01*
X58412199Y-83400148D01*
X58412191Y-83400142D01*
X58261028Y-83290316D01*
X58218364Y-83234989D01*
X58212385Y-83165376D01*
X58244990Y-83103580D01*
X58261023Y-83089686D01*
X58412199Y-82979852D01*
X58566852Y-82825199D01*
X58566854Y-82825195D01*
X58566857Y-82825193D01*
X58623229Y-82747601D01*
X58695407Y-82648257D01*
X58794701Y-82453383D01*
X58862286Y-82245375D01*
X58882764Y-82116081D01*
X58896500Y-82029361D01*
X58896500Y-81810638D01*
X58874224Y-81670000D01*
X58862286Y-81594625D01*
X58814197Y-81446619D01*
X58794702Y-81386619D01*
X58794701Y-81386616D01*
X58760315Y-81319132D01*
X58695407Y-81191743D01*
X58687147Y-81180374D01*
X58566857Y-81014806D01*
X58412199Y-80860148D01*
X58412191Y-80860142D01*
X58261028Y-80750316D01*
X58218364Y-80694989D01*
X58212385Y-80625376D01*
X58244990Y-80563580D01*
X58261023Y-80549686D01*
X58412199Y-80439852D01*
X58566852Y-80285199D01*
X58566854Y-80285195D01*
X58566857Y-80285193D01*
X58623229Y-80207601D01*
X58695407Y-80108257D01*
X58794701Y-79913383D01*
X58862286Y-79705375D01*
X58879912Y-79594082D01*
X58896500Y-79489361D01*
X58896500Y-79270638D01*
X58876595Y-79144971D01*
X58862286Y-79054625D01*
X58794701Y-78846617D01*
X58794701Y-78846616D01*
X58760315Y-78779132D01*
X58695407Y-78651743D01*
X58687147Y-78640374D01*
X58566857Y-78474806D01*
X58412193Y-78320142D01*
X58235260Y-78191595D01*
X58235259Y-78191594D01*
X58235257Y-78191593D01*
X58172825Y-78159782D01*
X58040383Y-78092298D01*
X58040380Y-78092297D01*
X57832376Y-78024714D01*
X57616361Y-77990500D01*
X57616356Y-77990500D01*
X55619644Y-77990500D01*
X55619639Y-77990500D01*
X55403623Y-78024714D01*
X55195619Y-78092297D01*
X55195616Y-78092298D01*
X55000739Y-78191595D01*
X54823806Y-78320142D01*
X54669142Y-78474806D01*
X54540595Y-78651739D01*
X54441298Y-78846616D01*
X54441297Y-78846619D01*
X54373714Y-79054623D01*
X54339500Y-79270638D01*
X54339500Y-79489361D01*
X54373714Y-79705376D01*
X54441297Y-79913380D01*
X54441298Y-79913383D01*
X54540595Y-80108260D01*
X54669142Y-80285193D01*
X54823806Y-80439857D01*
X54974969Y-80549682D01*
X55017635Y-80605011D01*
X55023614Y-80674625D01*
X54991009Y-80736420D01*
X54974969Y-80750318D01*
X54823806Y-80860142D01*
X54669142Y-81014806D01*
X54540595Y-81191739D01*
X54441298Y-81386616D01*
X54441297Y-81386619D01*
X54373714Y-81594623D01*
X54339500Y-81810638D01*
X54339500Y-82029361D01*
X54373714Y-82245376D01*
X54441297Y-82453380D01*
X54441298Y-82453383D01*
X54508782Y-82585825D01*
X54540461Y-82647998D01*
X54540595Y-82648260D01*
X54669142Y-82825193D01*
X54823806Y-82979857D01*
X54974969Y-83089682D01*
X55017635Y-83145011D01*
X55023614Y-83214625D01*
X54991009Y-83276420D01*
X54974969Y-83290318D01*
X54823806Y-83400142D01*
X54669142Y-83554806D01*
X54540595Y-83731739D01*
X54441298Y-83926616D01*
X54441297Y-83926619D01*
X54373714Y-84134623D01*
X54339500Y-84350638D01*
X54339500Y-84569361D01*
X54373714Y-84785376D01*
X54441297Y-84993380D01*
X54441298Y-84993383D01*
X54540595Y-85188260D01*
X54669142Y-85365193D01*
X54823806Y-85519857D01*
X54974969Y-85629682D01*
X55017635Y-85685011D01*
X55023614Y-85754625D01*
X54991009Y-85816420D01*
X54974969Y-85830318D01*
X54823806Y-85940142D01*
X54669142Y-86094806D01*
X54540595Y-86271739D01*
X54441298Y-86466616D01*
X54441299Y-86466617D01*
X54373714Y-86674623D01*
X54339500Y-86890638D01*
X54339500Y-87109361D01*
X54373714Y-87325376D01*
X54441297Y-87533380D01*
X54441298Y-87533383D01*
X54540595Y-87728260D01*
X54669142Y-87905193D01*
X54823806Y-88059857D01*
X54974969Y-88169682D01*
X55017635Y-88225011D01*
X55023614Y-88294625D01*
X54991009Y-88356420D01*
X54974969Y-88370318D01*
X54823806Y-88480142D01*
X54669142Y-88634806D01*
X54540595Y-88811739D01*
X54441298Y-89006616D01*
X54441299Y-89006617D01*
X54373714Y-89214623D01*
X54339500Y-89430638D01*
X54339500Y-89649361D01*
X54373714Y-89865376D01*
X54441297Y-90073380D01*
X54441298Y-90073383D01*
X54540595Y-90268260D01*
X54669142Y-90445193D01*
X54823806Y-90599857D01*
X54974969Y-90709682D01*
X55017635Y-90765011D01*
X55023614Y-90834625D01*
X54991009Y-90896420D01*
X54974969Y-90910318D01*
X54823806Y-91020142D01*
X54669142Y-91174806D01*
X54540595Y-91351739D01*
X54441298Y-91546616D01*
X54441299Y-91546617D01*
X54373714Y-91754623D01*
X54339500Y-91970638D01*
X54339500Y-92189361D01*
X54373714Y-92405376D01*
X54441297Y-92613380D01*
X54441298Y-92613383D01*
X54540595Y-92808260D01*
X54669142Y-92985193D01*
X54823806Y-93139857D01*
X54974969Y-93249682D01*
X55017635Y-93305011D01*
X55023614Y-93374625D01*
X54991009Y-93436420D01*
X54974969Y-93450318D01*
X54823806Y-93560142D01*
X54669142Y-93714806D01*
X54540595Y-93891739D01*
X54441298Y-94086616D01*
X54441297Y-94086619D01*
X54373714Y-94294623D01*
X54339500Y-94510638D01*
X54339500Y-94729361D01*
X54373714Y-94945376D01*
X54441297Y-95153380D01*
X54441298Y-95153383D01*
X54540595Y-95348260D01*
X54669142Y-95525193D01*
X54823806Y-95679857D01*
X54989374Y-95800147D01*
X55000743Y-95808407D01*
X55128132Y-95873315D01*
X55195616Y-95907701D01*
X55195619Y-95907702D01*
X55299621Y-95941493D01*
X55403625Y-95975286D01*
X55503672Y-95991132D01*
X55619639Y-96009500D01*
X55619644Y-96009500D01*
X57616361Y-96009500D01*
X57721082Y-95992912D01*
X57832375Y-95975286D01*
X58040383Y-95907701D01*
X58235257Y-95808407D01*
X58334601Y-95736229D01*
X58412193Y-95679857D01*
X58412195Y-95679854D01*
X58412199Y-95679852D01*
X58566852Y-95525199D01*
X58566854Y-95525195D01*
X58566857Y-95525193D01*
X58623229Y-95447601D01*
X58695407Y-95348257D01*
X58794701Y-95153383D01*
X58862286Y-94945375D01*
X58879912Y-94834082D01*
X58896500Y-94729361D01*
X58896500Y-94510638D01*
X58863666Y-94303341D01*
X58862286Y-94294625D01*
X58794701Y-94086617D01*
X58794701Y-94086616D01*
X58760315Y-94019132D01*
X58695407Y-93891743D01*
X58687147Y-93880374D01*
X58566857Y-93714806D01*
X58412199Y-93560148D01*
X58412191Y-93560142D01*
X58261028Y-93450316D01*
X58218364Y-93394989D01*
X58212385Y-93325376D01*
X58244990Y-93263580D01*
X58261023Y-93249686D01*
X58412199Y-93139852D01*
X58566852Y-92985199D01*
X58566854Y-92985195D01*
X58566857Y-92985193D01*
X58623229Y-92907601D01*
X58695407Y-92808257D01*
X58713267Y-92773204D01*
X58761242Y-92722409D01*
X58823752Y-92705500D01*
X60769548Y-92705500D01*
X60836587Y-92725185D01*
X60857229Y-92741819D01*
X63338181Y-95222771D01*
X63371666Y-95284094D01*
X63374500Y-95310452D01*
X63374500Y-103412871D01*
X63354815Y-103479910D01*
X63302011Y-103525665D01*
X63232853Y-103535609D01*
X63194205Y-103523356D01*
X63017755Y-103433450D01*
X62800248Y-103362778D01*
X62630826Y-103335944D01*
X62574354Y-103327000D01*
X62345646Y-103327000D01*
X62270349Y-103338926D01*
X62119753Y-103362778D01*
X62119750Y-103362778D01*
X61902244Y-103433450D01*
X61698461Y-103537283D01*
X61624051Y-103591346D01*
X61513434Y-103671714D01*
X61513432Y-103671716D01*
X61513431Y-103671716D01*
X61351716Y-103833431D01*
X61351716Y-103833432D01*
X61351714Y-103833434D01*
X61293980Y-103912896D01*
X61217283Y-104018461D01*
X61134061Y-104181795D01*
X61086087Y-104232591D01*
X61023576Y-104249500D01*
X54076874Y-104249500D01*
X54009835Y-104229815D01*
X53989193Y-104213181D01*
X53953044Y-104177032D01*
X53953040Y-104177029D01*
X53808705Y-104088001D01*
X53808699Y-104087998D01*
X53808697Y-104087997D01*
X53808694Y-104087996D01*
X53647709Y-104034651D01*
X53548346Y-104024500D01*
X53001662Y-104024500D01*
X53001644Y-104024501D01*
X52902292Y-104034650D01*
X52902289Y-104034651D01*
X52741305Y-104087996D01*
X52741294Y-104088001D01*
X52596959Y-104177029D01*
X52596955Y-104177032D01*
X52477032Y-104296955D01*
X52477029Y-104296959D01*
X52388001Y-104441294D01*
X52387996Y-104441305D01*
X52334651Y-104602290D01*
X52324500Y-104701647D01*
X52324500Y-105298337D01*
X52324501Y-105298355D01*
X52334650Y-105397707D01*
X52334651Y-105397710D01*
X52387996Y-105558694D01*
X52388001Y-105558705D01*
X52477029Y-105703040D01*
X52477032Y-105703044D01*
X52488181Y-105714193D01*
X52521666Y-105775516D01*
X52524500Y-105801874D01*
X52524500Y-107362770D01*
X52504815Y-107429809D01*
X52488181Y-107450451D01*
X51917048Y-108021583D01*
X51897301Y-108051137D01*
X51877686Y-108080495D01*
X51834919Y-108144499D01*
X51834912Y-108144511D01*
X51778343Y-108281082D01*
X51778340Y-108281092D01*
X51749500Y-108426079D01*
X51749500Y-108426082D01*
X51749500Y-113426082D01*
X51749500Y-113926082D01*
X51749500Y-114426082D01*
X51749500Y-146573918D01*
X51749500Y-146573920D01*
X51749499Y-146573920D01*
X50500500Y-146573920D01*
X50500500Y-75624500D01*
X50520185Y-75557461D01*
X50572989Y-75511706D01*
X50624500Y-75500500D01*
X79375500Y-75500500D01*
X79442539Y-75520185D01*
G37*
%TD.AperFunction*%
%TD*%
M02*
